HIERARCHY
ROOT mixamorig:Hips
{
	OFFSET 0.000000 201.639420 0.000000
	CHANNELS 6 Xposition Yposition Zposition Xrotation Yrotation Zrotation
	JOINT mixamorig:Spine
	{
		OFFSET 0.006200 19.524994 -2.481800
		CHANNELS 3 Xrotation Yrotation Zrotation
		JOINT mixamorig:Spine1
		{
			OFFSET -0.000900 22.835007 -2.825400
			CHANNELS 3 Xrotation Yrotation Zrotation
			JOINT mixamorig:Spine2
			{
				OFFSET -0.020600 26.552490 -3.193300
				CHANNELS 3 Xrotation Yrotation Zrotation
				JOINT mixamorig:Neck
				{
					OFFSET -0.060000 30.701813 1.352200
					CHANNELS 3 Xrotation Yrotation Zrotation
					JOINT mixamorig:Head
					{
						OFFSET -0.087200 22.547607 3.670900
						CHANNELS 3 Xrotation Yrotation Zrotation
						JOINT mixamorig:HeadTop_End
						{
							OFFSET -0.830600 40.355194 7.893500
							CHANNELS 3 Xrotation Yrotation Zrotation
							End Site
							{
								OFFSET 0.000000 30.592346 0.000000
							}
						}
						JOINT mixamorig:RightEye
						{
							OFFSET -6.302100 18.118591 16.197100
							CHANNELS 3 Xrotation Yrotation Zrotation
							End Site
							{
								OFFSET 0.000000 30.592346 0.000000
							}
						}
						JOINT mixamorig:LeftEye
						{
							OFFSET 6.741500 18.382690 16.401899
							CHANNELS 3 Xrotation Yrotation Zrotation
							End Site
							{
								OFFSET 0.000000 30.592346 0.000000
							}
						}
					}
				}
				JOINT mixamorig:LeftShoulder
				{
					OFFSET 11.924900 18.230499 1.425400
					CHANNELS 3 Xrotation Yrotation Zrotation
					JOINT mixamorig:LeftArm
					{
						OFFSET 25.435989 -0.697632 -5.229300
						CHANNELS 3 Xrotation Yrotation Zrotation
						JOINT mixamorig:LeftForeArm
						{
							OFFSET 54.684776 0.000000 0.000000
							CHANNELS 3 Xrotation Yrotation Zrotation
							JOINT mixamorig:LeftHand
							{
								OFFSET 55.098175 0.000000 0.000000
								CHANNELS 3 Xrotation Yrotation Zrotation
								JOINT mixamorig:LeftHandMiddle1
								{
									OFFSET 23.369751 0.000000 0.000000
									CHANNELS 3 Xrotation Yrotation Zrotation
									JOINT mixamorig:LeftHandMiddle2
									{
										OFFSET 6.378677 0.000000 0.000000
										CHANNELS 3 Xrotation Yrotation Zrotation
										JOINT mixamorig:LeftHandMiddle3
										{
											OFFSET 6.148331 0.000000 0.000000
											CHANNELS 3 Xrotation Yrotation Zrotation
											JOINT mixamorig:LeftHandMiddle4
											{
												OFFSET 6.582504 0.000000 0.000000
												CHANNELS 3 Xrotation Yrotation Zrotation
												End Site
												{
													OFFSET -1.168900 6.395691 1.028606
												}
											}
										}
									}
								}
								JOINT mixamorig:LeftHandThumb1
								{
									OFFSET 7.235672 -3.848206 5.434273
									CHANNELS 3 Xrotation Yrotation Zrotation
									JOINT mixamorig:LeftHandThumb2
									{
										OFFSET 6.568451 -3.792297 3.792300
										CHANNELS 3 Xrotation Yrotation Zrotation
										JOINT mixamorig:LeftHandThumb3
										{
											OFFSET 6.063080 -3.500519 3.500518
											CHANNELS 3 Xrotation Yrotation Zrotation
											JOINT mixamorig:LeftHandThumb4
											{
												OFFSET 4.793182 -2.767334 2.767349
												CHANNELS 3 Xrotation Yrotation Zrotation
												End Site
												{
													OFFSET 0.101639 6.054260 1.275483
												}
											}
										}
									}
								}
								JOINT mixamorig:LeftHandIndex1
								{
									OFFSET 23.101074 -0.309540 4.992809
									CHANNELS 3 Xrotation Yrotation Zrotation
									JOINT mixamorig:LeftHandIndex2
									{
										OFFSET 6.226883 0.000000 0.000000
										CHANNELS 3 Xrotation Yrotation Zrotation
										JOINT mixamorig:LeftHandIndex3
										{
											OFFSET 6.094330 0.000000 0.000000
											CHANNELS 3 Xrotation Yrotation Zrotation
											JOINT mixamorig:LeftHandIndex4
											{
												OFFSET 5.482605 0.000000 0.000000
												CHANNELS 3 Xrotation Yrotation Zrotation
												End Site
												{
													OFFSET -1.427902 5.233032 0.797164
												}
											}
										}
									}
								}
								JOINT mixamorig:LeftHandRing1
								{
									OFFSET 22.299240 0.021149 -3.964172
									CHANNELS 3 Xrotation Yrotation Zrotation
									JOINT mixamorig:LeftHandRing2
									{
										OFFSET 6.321869 0.000000 0.000000
										CHANNELS 3 Xrotation Yrotation Zrotation
										JOINT mixamorig:LeftHandRing3
										{
											OFFSET 5.899796 0.000000 0.000000
											CHANNELS 3 Xrotation Yrotation Zrotation
											JOINT mixamorig:LeftHandRing4
											{
												OFFSET 6.517899 0.000000 0.000000
												CHANNELS 3 Xrotation Yrotation Zrotation
												End Site
												{
													OFFSET -1.637299 6.232208 0.980890
												}
											}
										}
									}
								}
								JOINT mixamorig:LeftHandPinky1
								{
									OFFSET 20.463791 -0.302338 -8.562233
									CHANNELS 3 Xrotation Yrotation Zrotation
									JOINT mixamorig:LeftHandPinky2
									{
										OFFSET 6.908646 0.000000 0.000000
										CHANNELS 3 Xrotation Yrotation Zrotation
										JOINT mixamorig:LeftHandPinky3
										{
											OFFSET 4.622849 0.000000 0.000000
											CHANNELS 3 Xrotation Yrotation Zrotation
											JOINT mixamorig:LeftHandPinky4
											{
												OFFSET 5.216080 0.000000 0.000000
												CHANNELS 3 Xrotation Yrotation Zrotation
												End Site
												{
													OFFSET -0.606308 5.116241 0.814926
												}
											}
										}
									}
								}
							}
						}
					}
				}
				JOINT mixamorig:RightShoulder
				{
					OFFSET -12.001300 18.284088 1.348900
					CHANNELS 3 Xrotation Yrotation Zrotation
					JOINT mixamorig:RightArm
					{
						OFFSET -25.308500 -0.751312 -5.164599
						CHANNELS 3 Xrotation Yrotation Zrotation
						JOINT mixamorig:RightForeArm
						{
							OFFSET -54.684429 0.000000 0.000000
							CHANNELS 3 Xrotation Yrotation Zrotation
							JOINT mixamorig:RightHand
							{
								OFFSET -55.150291 0.000000 0.000000
								CHANNELS 3 Xrotation Yrotation Zrotation
								JOINT mixamorig:RightHandMiddle1
								{
									OFFSET -23.317566 0.000000 0.000000
									CHANNELS 3 Xrotation Yrotation Zrotation
									JOINT mixamorig:RightHandMiddle2
									{
										OFFSET -6.378403 0.000000 0.000000
										CHANNELS 3 Xrotation Yrotation Zrotation
										JOINT mixamorig:RightHandMiddle3
										{
											OFFSET -6.148193 0.000000 0.000000
											CHANNELS 3 Xrotation Yrotation Zrotation
											JOINT mixamorig:RightHandMiddle4
											{
												OFFSET -6.583389 0.000000 0.000000
												CHANNELS 3 Xrotation Yrotation Zrotation
												End Site
												{
													OFFSET 1.171692 6.395905 1.029786
												}
											}
										}
									}
								}
								JOINT mixamorig:RightHandThumb1
								{
									OFFSET -7.190521 -3.860474 5.435846
									CHANNELS 3 Xrotation Yrotation Zrotation
									JOINT mixamorig:RightHandThumb2
									{
										OFFSET -6.567429 -3.791718 3.791708
										CHANNELS 3 Xrotation Yrotation Zrotation
										JOINT mixamorig:RightHandThumb3
										{
											OFFSET -6.062469 -3.500153 3.500166
											CHANNELS 3 Xrotation Yrotation Zrotation
											JOINT mixamorig:RightHandThumb4
											{
												OFFSET -4.792618 -2.767029 2.767022
												CHANNELS 3 Xrotation Yrotation Zrotation
												End Site
												{
													OFFSET -0.100327 6.053253 1.276754
												}
											}
										}
									}
								}
								JOINT mixamorig:RightHandIndex1
								{
									OFFSET -23.048981 -0.310791 4.992554
									CHANNELS 3 Xrotation Yrotation Zrotation
									JOINT mixamorig:RightHandIndex2
									{
										OFFSET -6.227539 0.000000 0.000000
										CHANNELS 3 Xrotation Yrotation Zrotation
										JOINT mixamorig:RightHandIndex3
										{
											OFFSET -6.095047 0.000000 0.000000
											CHANNELS 3 Xrotation Yrotation Zrotation
											JOINT mixamorig:RightHandIndex4
											{
												OFFSET -5.484772 0.000000 0.000000
												CHANNELS 3 Xrotation Yrotation Zrotation
												End Site
												{
													OFFSET 1.420593 5.237305 0.797056
												}
											}
										}
									}
								}
								JOINT mixamorig:RightHandRing1
								{
									OFFSET -22.246323 0.020569 -3.963762
									CHANNELS 3 Xrotation Yrotation Zrotation
									JOINT mixamorig:RightHandRing2
									{
										OFFSET -6.322128 0.000000 0.000000
										CHANNELS 3 Xrotation Yrotation Zrotation
										JOINT mixamorig:RightHandRing3
										{
											OFFSET -5.900024 0.000000 0.000000
											CHANNELS 3 Xrotation Yrotation Zrotation
											JOINT mixamorig:RightHandRing4
											{
												OFFSET -6.518356 0.000000 0.000000
												CHANNELS 3 Xrotation Yrotation Zrotation
												End Site
												{
													OFFSET 1.636398 6.232697 0.982186
												}
											}
										}
									}
								}
								JOINT mixamorig:RightHandPinky1
								{
									OFFSET -20.411011 -0.303314 -8.561701
									CHANNELS 3 Xrotation Yrotation Zrotation
									JOINT mixamorig:RightHandPinky2
									{
										OFFSET -6.907349 0.000000 0.000000
										CHANNELS 3 Xrotation Yrotation Zrotation
										JOINT mixamorig:RightHandPinky3
										{
											OFFSET -4.623840 0.000000 0.000000
											CHANNELS 3 Xrotation Yrotation Zrotation
											JOINT mixamorig:RightHandPinky4
											{
												OFFSET -5.218353 0.000000 0.000000
												CHANNELS 3 Xrotation Yrotation Zrotation
												End Site
												{
													OFFSET 0.602097 5.118835 0.816273
												}
											}
										}
									}
								}
							}
						}
					}
				}
			}
		}
	}
	JOINT mixamorig:LeftUpLeg
	{
		OFFSET 18.168400 -13.561905 -0.039000
		CHANNELS 3 Xrotation Yrotation Zrotation
		JOINT mixamorig:LeftLeg
		{
			OFFSET 0.577358 -80.825211 -3.695000
			CHANNELS 3 Xrotation Yrotation Zrotation
			JOINT mixamorig:LeftFoot
			{
				OFFSET -0.577356 -83.370262 -6.520700
				CHANNELS 3 Xrotation Yrotation Zrotation
				JOINT mixamorig:LeftToeBase
				{
					OFFSET 0.750401 -20.798306 25.135401
					CHANNELS 3 Xrotation Yrotation Zrotation
					JOINT mixamorig:LeftToe_End
					{
						OFFSET -0.000500 0.001200 19.917799
						CHANNELS 3 Xrotation Yrotation Zrotation
						End Site
						{
							OFFSET 0.000000 19.917805 0.000000
						}
					}
				}
			}
		}
	}
	JOINT mixamorig:RightUpLeg
	{
		OFFSET -18.162500 -13.585098 -0.041000
		CHANNELS 3 Xrotation Yrotation Zrotation
		JOINT mixamorig:RightLeg
		{
			OFFSET -0.595024 -80.945297 -3.631900
			CHANNELS 3 Xrotation Yrotation Zrotation
			JOINT mixamorig:RightFoot
			{
				OFFSET 0.595024 -83.218193 -6.561200
				CHANNELS 3 Xrotation Yrotation Zrotation
				JOINT mixamorig:RightToeBase
				{
					OFFSET -0.753601 -20.807106 25.115000
					CHANNELS 3 Xrotation Yrotation Zrotation
					JOINT mixamorig:RightToe_End
					{
						OFFSET 0.000299 0.001700 19.918200
						CHANNELS 3 Xrotation Yrotation Zrotation
						End Site
						{
							OFFSET 0.000000 19.918203 0.000000
						}
					}
				}
			}
		}
	}
}
MOTION
Frames: 5
Frame Time: 0.033333
35.785629 186.609970 1.647373 2.643114 -27.722075 2.336039 6.060665 3.017815 -0.541251 4.518015 2.275963 -0.442494 4.503949 2.302098 -0.449526 4.578511 3.405182 0.889537 4.593461 -0.329395 -1.922751 -0.000001 0.000001 0.000000 -0.000001 0.000001 0.000000 -0.000001 0.000001 0.000000 3.552746 2.637946 -8.852394 -35.385810 -25.779180 -71.093977 -0.000092 -116.854783 -0.000095 29.631898 0.178724 11.097914 4.820117 6.566682 -72.419014 7.352026 6.865138 -93.932928 2.650657 5.432037 -51.995870 0.000001 0.000000 0.000001 11.918593 9.119161 -12.322248 14.011671 20.969420 0.558218 30.253155 68.777915 -8.348523 -0.000001 -0.000003 -0.000001 5.610857 6.763467 -79.336581 7.352086 6.865129 -93.933392 2.727239 5.490752 -52.800504 -0.000001 0.000003 -0.000000 5.553247 6.752466 -78.738544 7.428380 6.859514 -94.571824 2.764912 5.518999 -53.193346 -0.000001 0.000001 0.000001 6.114377 6.841031 -82.270134 7.319400 2.780964 -93.656838 2.516231 5.324759 -50.561831 -0.000002 0.000001 -0.000001 3.901284 7.401624 4.299336 -60.993985 28.289875 77.391480 -0.000079 110.295315 0.000080 -13.570430 7.161689 -4.623828 5.418913 -6.778748 76.938318 7.889199 -6.884541 97.802073 2.026695 -4.140234 39.978132 0.000004 0.000000 -0.000004 4.168279 -11.709915 17.164467 7.020959 -27.100770 -13.838049 38.073868 -44.823957 0.494864 0.000005 0.000002 0.000001 5.756815 -6.845813 80.102976 7.889125 -6.884508 97.801731 1.688231 -4.546243 40.727499 -0.000000 0.000001 -0.000001 5.705876 -6.837745 78.739377 8.074282 -6.856829 99.349145 2.062610 -4.358273 41.638483 0.000000 -0.000002 -0.000005 5.756811 -6.845803 80.102970 7.889144 -6.884544 97.801752 1.688226 -4.546241 40.727499 0.000000 0.000002 -0.000004 -32.899242 8.991608 16.498426 29.891817 -9.005227 6.574162 -0.960295 -0.870192 -17.359081 -0.000056 0.000000 0.000001 -0.000000 0.000000 -0.000000 -11.557619 -12.375740 -13.175585 37.302610 0.297943 2.246962 -27.950423 -2.434233 7.861501 -2.681304 0.000003 0.000001 -0.000000 0.000000 -0.000000 
35.733414 186.206512 0.008869 2.010839 -25.972477 2.646499 6.154452 3.013411 -0.189347 4.599041 2.278118 -0.218131 4.581130 2.313193 -0.228455 4.643346 3.463805 0.527454 5.308083 -0.423184 -2.166126 -0.000003 -0.000001 0.000001 -0.000003 -0.000001 0.000001 -0.000003 -0.000001 0.000001 3.637641 3.045114 -9.356869 -33.554937 -26.219826 -71.414607 -0.000032 -117.037901 -0.000015 29.700050 -0.006984 11.662601 4.820117 6.566682 -72.419020 7.352030 6.865140 -93.932935 2.650655 5.432035 -51.995867 -0.000001 0.000002 -0.000001 11.918596 9.119161 -12.322244 14.011668 20.969418 0.558217 30.253162 68.777908 -8.348522 -0.000002 -0.000002 -0.000001 5.610854 6.763468 -79.336575 7.352087 6.865128 -93.933386 2.727239 5.490749 -52.800508 -0.000003 0.000001 -0.000003 5.553243 6.752463 -78.738544 7.428380 6.859514 -94.571824 2.764915 5.519004 -53.193343 -0.000003 -0.000002 0.000001 6.114375 6.841033 -82.270134 7.319394 2.780963 -93.656838 2.516233 5.324755 -50.561838 -0.000001 0.000001 0.000002 3.633962 6.967625 4.008885 -59.849772 28.412672 77.346708 0.000220 110.551864 -0.000221 -13.538435 7.011151 -4.481174 5.418912 -6.778751 76.938318 7.889201 -6.884540 97.802080 2.026696 -4.140237 39.978132 0.000004 -0.000003 0.000004 4.168282 -11.709916 17.164465 7.020963 -27.100765 -13.838053 38.073865 -44.823960 0.494869 0.000000 0.000002 0.000001 5.756815 -6.845809 80.102970 7.889125 -6.884508 97.801731 1.688233 -4.546241 40.727506 -0.000001 -0.000001 -0.000001 5.705875 -6.837747 78.739377 8.074283 -6.856830 99.349145 2.062607 -4.358273 41.638476 0.000000 -0.000001 -0.000003 5.756811 -6.845804 80.102970 7.889144 -6.884543 97.801752 1.688225 -4.546236 40.727499 0.000000 0.000001 -0.000008 -33.034302 9.113032 16.082589 29.381780 -9.086580 5.880032 -0.166051 -2.525328 -16.914975 -1.627685 -0.000000 -0.000005 0.000000 -0.000002 -0.000000 -12.062153 -12.803348 -14.132276 38.956544 -0.308964 2.881038 -28.632416 -2.375260 7.588923 -1.564954 -0.000005 0.000003 -0.000000 -0.000000 0.000000 
35.733414 186.206512 0.008869 2.010839 -25.972477 2.646499 6.154452 3.013411 -0.189347 4.599041 2.278118 -0.218131 4.581130 2.313193 -0.228455 4.643346 3.463805 0.527454 5.308083 -0.423184 -2.166126 -0.000003 -0.000001 0.000001 -0.000003 -0.000001 0.000001 -0.000003 -0.000001 0.000001 3.637641 3.045114 -9.356869 -33.554937 -26.219826 -71.414607 -0.000032 -117.037901 -0.000015 29.700050 -0.006984 11.662601 4.820117 6.566682 -72.419020 7.352030 6.865140 -93.932935 2.650655 5.432035 -51.995867 -0.000001 0.000002 -0.000001 11.918596 9.119161 -12.322244 14.011668 20.969418 0.558217 30.253162 68.777908 -8.348522 -0.000002 -0.000002 -0.000001 5.610854 6.763468 -79.336575 7.352087 6.865128 -93.933386 2.727239 5.490749 -52.800508 -0.000003 0.000001 -0.000003 5.553243 6.752463 -78.738544 7.428380 6.859514 -94.571824 2.764915 5.519004 -53.193343 -0.000003 -0.000002 0.000001 6.114375 6.841033 -82.270134 7.319394 2.780963 -93.656838 2.516233 5.324755 -50.561838 -0.000001 0.000001 0.000002 3.633962 6.967625 4.008885 -59.849772 28.412672 77.346708 0.000220 110.551864 -0.000221 -13.538435 7.011151 -4.481174 5.418912 -6.778751 76.938318 7.889201 -6.884540 97.802080 2.026696 -4.140237 39.978132 0.000004 -0.000003 0.000004 4.168282 -11.709916 17.164465 7.020963 -27.100765 -13.838053 38.073865 -44.823960 0.494869 0.000000 0.000002 0.000001 5.756815 -6.845809 80.102970 7.889125 -6.884508 97.801731 1.688233 -4.546241 40.727506 -0.000001 -0.000001 -0.000001 5.705875 -6.837747 78.739377 8.074283 -6.856830 99.349145 2.062607 -4.358273 41.638476 0.000000 -0.000001 -0.000003 5.756811 -6.845804 80.102970 7.889144 -6.884543 97.801752 1.688225 -4.546236 40.727499 0.000000 0.000001 -0.000008 -33.034302 9.113032 16.082589 29.381780 -9.086580 5.880032 -0.166051 -2.525328 -16.914975 -1.627685 -0.000000 -0.000005 0.000000 -0.000002 -0.000000 -12.062153 -12.803348 -14.132276 38.956544 -0.308964 2.881038 -28.632416 -2.375260 7.588923 -1.564954 -0.000005 0.000003 -0.000000 -0.000000 0.000000 
35.733414 186.206512 0.008869 2.010839 -25.972477 2.646499 6.154452 3.013411 -0.189347 4.599041 2.278118 -0.218131 4.581130 2.313193 -0.228455 4.643346 3.463805 0.527454 5.308083 -0.423184 -2.166126 -0.000003 -0.000001 0.000001 -0.000003 -0.000001 0.000001 -0.000003 -0.000001 0.000001 3.637641 3.045114 -9.356869 -33.554937 -26.219826 -71.414607 -0.000032 -117.037901 -0.000015 29.700050 -0.006984 11.662601 4.820117 6.566682 -72.419020 7.352030 6.865140 -93.932935 2.650655 5.432035 -51.995867 -0.000001 0.000002 -0.000001 11.918596 9.119161 -12.322244 14.011668 20.969418 0.558217 30.253162 68.777908 -8.348522 -0.000002 -0.000002 -0.000001 5.610854 6.763468 -79.336575 7.352087 6.865128 -93.933386 2.727239 5.490749 -52.800508 -0.000003 0.000001 -0.000003 5.553243 6.752463 -78.738544 7.428380 6.859514 -94.571824 2.764915 5.519004 -53.193343 -0.000003 -0.000002 0.000001 6.114375 6.841033 -82.270134 7.319394 2.780963 -93.656838 2.516233 5.324755 -50.561838 -0.000001 0.000001 0.000002 3.633962 6.967625 4.008885 -59.849772 28.412672 77.346708 0.000220 110.551864 -0.000221 -13.538435 7.011151 -4.481174 5.418912 -6.778751 76.938318 7.889201 -6.884540 97.802080 2.026696 -4.140237 39.978132 0.000004 -0.000003 0.000004 4.168282 -11.709916 17.164465 7.020963 -27.100765 -13.838053 38.073865 -44.823960 0.494869 0.000000 0.000002 0.000001 5.756815 -6.845809 80.102970 7.889125 -6.884508 97.801731 1.688233 -4.546241 40.727506 -0.000001 -0.000001 -0.000001 5.705875 -6.837747 78.739377 8.074283 -6.856830 99.349145 2.062607 -4.358273 41.638476 0.000000 -0.000001 -0.000003 5.756811 -6.845804 80.102970 7.889144 -6.884543 97.801752 1.688225 -4.546236 40.727499 0.000000 0.000001 -0.000008 -33.034302 9.113032 16.082589 29.381780 -9.086580 5.880032 -0.166051 -2.525328 -16.914975 -1.627685 -0.000000 -0.000005 0.000000 -0.000002 -0.000000 -12.062153 -12.803348 -14.132276 38.956544 -0.308964 2.881038 -28.632416 -2.375260 7.588923 -1.564954 -0.000005 0.000003 -0.000000 -0.000000 0.000000 
35.733414 186.206512 0.008869 2.010839 -25.972477 2.646499 6.154452 3.013411 -0.189347 4.599041 2.278118 -0.218131 4.581130 2.313193 -0.228455 4.643346 3.463805 0.527454 5.308083 -0.423184 -2.166126 -0.000003 -0.000001 0.000001 -0.000003 -0.000001 0.000001 -0.000003 -0.000001 0.000001 3.637641 3.045114 -9.356869 -33.554937 -26.219826 -71.414607 -0.000032 -117.037901 -0.000015 29.700050 -0.006984 11.662601 4.820117 6.566682 -72.419020 7.352030 6.865140 -93.932935 2.650655 5.432035 -51.995867 -0.000001 0.000002 -0.000001 11.918596 9.119161 -12.322244 14.011668 20.969418 0.558217 30.253162 68.777908 -8.348522 -0.000002 -0.000002 -0.000001 5.610854 6.763468 -79.336575 7.352087 6.865128 -93.933386 2.727239 5.490749 -52.800508 -0.000003 0.000001 -0.000003 5.553243 6.752463 -78.738544 7.428380 6.859514 -94.571824 2.764915 5.519004 -53.193343 -0.000003 -0.000002 0.000001 6.114375 6.841033 -82.270134 7.319394 2.780963 -93.656838 2.516233 5.324755 -50.561838 -0.000001 0.000001 0.000002 3.633962 6.967625 4.008885 -59.849772 28.412672 77.346708 0.000220 110.551864 -0.000221 -13.538435 7.011151 -4.481174 5.418912 -6.778751 76.938318 7.889201 -6.884540 97.802080 2.026696 -4.140237 39.978132 0.000004 -0.000003 0.000004 4.168282 -11.709916 17.164465 7.020963 -27.100765 -13.838053 38.073865 -44.823960 0.494869 0.000000 0.000002 0.000001 5.756815 -6.845809 80.102970 7.889125 -6.884508 97.801731 1.688233 -4.546241 40.727506 -0.000001 -0.000001 -0.000001 5.705875 -6.837747 78.739377 8.074283 -6.856830 99.349145 2.062607 -4.358273 41.638476 0.000000 -0.000001 -0.000003 5.756811 -6.845804 80.102970 7.889144 -6.884543 97.801752 1.688225 -4.546236 40.727499 0.000000 0.000001 -0.000008 -33.034302 9.113032 16.082589 29.381780 -9.086580 5.880032 -0.166051 -2.525328 -16.914975 -1.627685 -0.000000 -0.000005 0.000000 -0.000002 -0.000000 -12.062153 -12.803348 -14.132276 38.956544 -0.308964 2.881038 -28.632416 -2.375260 7.588923 -1.564954 -0.000005 0.000003 -0.000000 -0.000000 0.000000 
